<svg xmlns="http://www.w3.org/2000/svg" viewBox="0 0 297.47 92.36"><title>Asset 2</title><g id="Layer_2" data-name="Layer 2"><g id="Layer_1-2" data-name="Layer 1"><path d="M86.71,50.49l13.88-34.74H118.8L83.86,92.36H65.28L77.05,66.6,55.81,15.75H74.33Z"/><path d="M157.26,66.6V58.3A14.68,14.68,0,0,1,154.44,62a22.09,22.09,0,0,1-6,4.25,19.17,19.17,0,0,1-8.73,1.88,23.34,23.34,0,0,1-12.95-3.59,24.72,24.72,0,0,1-8.7-9.69A29.44,29.44,0,0,1,115,41.2a29.48,29.48,0,0,1,3.13-13.56,25,25,0,0,1,8.7-9.76,23.27,23.27,0,0,1,12.95-3.62,21.16,21.16,0,0,1,8.42,1.55A20.32,20.32,0,0,1,154,19.46a14,14,0,0,1,3.06,3.78V15.75h18.46V66.6Zm-24.1-25.4a12,12,0,0,0,12,12.33,11.19,11.19,0,0,0,8.51-3.5A12.32,12.32,0,0,0,157,41.2a12.46,12.46,0,0,0-3.32-8.82,11.06,11.06,0,0,0-8.51-3.56,11.56,11.56,0,0,0-8.45,3.53A11.92,11.92,0,0,0,133.16,41.2Z"/><path d="M251.22,14.26q8.61,0,14.06,5.42t5.45,17.06V66.6H252.46V39.53a19.87,19.87,0,0,0-1.61-8.67c-1.08-2.19-3.22-3.28-6.44-3.28a8.59,8.59,0,0,0-7,3.25c-1.78,2.17-2.66,5.07-2.66,8.7V66.6h-17V39.53a18.15,18.15,0,0,0-1.79-8.67q-1.8-3.28-6.26-3.28a8.65,8.65,0,0,0-7,3.19c-1.75,2.12-2.63,5.05-2.63,8.76V66.6H181.6V15.75H200V23a10.44,10.44,0,0,1,3.28-3.9,22.64,22.64,0,0,1,6.23-3.44,22.3,22.3,0,0,1,7.89-1.39q6.75,0,10.32,2.94A18.84,18.84,0,0,1,233,24.05a11.93,11.93,0,0,1,3.44-4.49,21.52,21.52,0,0,1,6.41-3.78A22.59,22.59,0,0,1,251.22,14.26Z"/><path d="M10.5,41.59a57,57,0,0,0,10.06,5.23,61.93,61.93,0,0,1,12.2,6q4.1,2.82,4.09,7a7.52,7.52,0,0,1-3.74,6.47H55.28a25.61,25.61,0,0,0,.59-5.61A22.37,22.37,0,0,0,52.8,48.71a26.72,26.72,0,0,0-8.18-8.36,54.05,54.05,0,0,0-11.11-5.6,54.4,54.4,0,0,1-11.15-5.33c-2.4-1.65-3.59-3.63-3.59-6a5.58,5.58,0,0,1,3-5.17,15.66,15.66,0,0,1,7.8-1.7,20.77,20.77,0,0,1,6.78,1.11A32.74,32.74,0,0,1,42,20.22a28.32,28.32,0,0,1,3.41,2.2L54.19,7.68A35,35,0,0,0,50,5.2a48.25,48.25,0,0,0-9.13-3.53A47.45,47.45,0,0,0,27.62,0,33.9,33.9,0,0,0,14,2.72,25.22,25.22,0,0,0,3.87,10.47,18.89,18.89,0,0,0,0,22.36,21.32,21.32,0,0,0,2.91,33.88,25.14,25.14,0,0,0,10.5,41.59Z"/><path d="M3.65,60.39.15,66.24H15.73A55.13,55.13,0,0,1,8,63,36.64,36.64,0,0,1,3.65,60.39Z"/><path d="M296.75,66.24a11.09,11.09,0,0,0,.72-4A11.2,11.2,0,0,0,286.26,51a10.63,10.63,0,0,0-7.84,3.28,10.89,10.89,0,0,0-3.25,7.93,11.09,11.09,0,0,0,.71,4Z"/></g></g></svg>